<svg width="45" height="47" viewBox="0 0 45 47" fill="none" xmlns="http://www.w3.org/2000/svg">
<path d="M2 14C2 8.47715 6.47715 4 12 4H32C37.5228 4 42 8.47715 42 14H2Z" fill="#EAA43C"/>
<path d="M42 16C42 21.5228 37.5228 26 32 26H12C6.47715 26 2 21.5228 2 16H42Z" fill="#FCD95E"/>
<path d="M9 45.1481L15.4705 21" stroke="#FCD95E" stroke-width="2" stroke-linecap="round"/>
<path d="M34.5291 45.1481L28.0587 21" stroke="#FCD95E" stroke-width="2" stroke-linecap="round"/>
<path d="M0.741181 20.0694C0.207715 20.2123 -0.108868 20.7606 0.0340741 21.2941C0.177016 21.8276 0.725353 22.1441 1.25882 22.0012L0.741181 20.0694ZM1.25882 22.0012L5.12252 20.9659L4.60488 19.0341L0.741181 20.0694L1.25882 22.0012Z" fill="#FCD95E"/>
<path d="M43.9862 20.0694C44.5197 20.2123 44.8363 20.7606 44.6933 21.2941C44.5504 21.8276 44.0021 22.1441 43.4686 22.0012L43.9862 20.0694ZM43.4686 22.0012L39.6049 20.9659L40.1225 19.0341L43.9862 20.0694L43.4686 22.0012Z" fill="#FCD95E"/>
<line x1="12" y1="32" x2="31" y2="32" stroke="#FCD95E" stroke-width="2"/>
<path d="M16 6V3C16 1.89543 16.8954 1 18 1H27C28.1046 1 29 1.89543 29 3V6" stroke="#EAA43C" stroke-width="2" stroke-linecap="round"/>
</svg>
